<svg width="1080" height="1080" viewBox="0 0 1080 1080" fill="none" xmlns="http://www.w3.org/2000/svg">
<path d="M354.858 396.376C354.861 491.745 354.867 721.301 354.857 723.762C354.848 726.229 588.335 724.778 684.5 724.076C707.088 723.911 725.143 705.7 725.143 683.112V355.548C725.143 354.315 491.947 355.039 395.676 355.39C373.02 355.473 354.858 373.721 354.858 396.376Z" fill="#232D3F"/>
<path d="M149.787 724.321C205.943 725.07 299.054 725.965 301.32 723.698C303.934 721.082 302.341 440.716 301.619 331.251C301.462 307.483 320.607 288.311 344.367 288.472C451.385 289.198 721.095 290.767 723.699 288.164C725.917 285.947 725.107 204.221 724.369 152.564C724.039 129.449 705.254 110.928 682.146 110.806L150.786 108.001C127.193 107.876 108 126.975 108 150.577V681.843C108 705.074 126.566 724.011 149.787 724.321Z" fill="#232D3F"/>
<path d="M930.214 355.679C874.057 354.93 780.946 354.035 778.68 356.302C776.066 358.918 777.659 639.284 778.381 748.749C778.538 772.517 759.393 791.689 735.633 791.528C628.615 790.802 358.905 789.233 356.301 791.836C354.083 794.054 354.893 875.779 355.631 927.436C355.961 950.551 374.746 969.072 397.854 969.194L929.214 971.999C952.807 972.124 972 953.025 972 929.423V398.157C972 374.926 953.434 355.989 930.214 355.679Z" fill="#232D3F"/>
</svg>
