<svg width="1070" height="134" viewBox="0 0 1070 134" fill="none" xmlns="http://www.w3.org/2000/svg">
<path d="M41.3592 46.9698C41.3596 59.8574 41.3604 90.8785 41.3591 91.2111C41.3578 91.5445 72.9102 91.3484 85.9055 91.2535C88.9578 91.2312 91.3977 88.7703 91.3977 85.7178V41.4524C91.3977 41.2858 59.8847 41.3836 46.8751 41.4311C43.8135 41.4423 41.3592 43.9082 41.3592 46.9698Z" fill="#031B64"/>
<path d="M13.6468 91.2866C21.2355 91.3879 33.8181 91.5088 34.1243 91.2024C34.4776 90.849 34.2623 52.9617 34.1648 38.1691C34.1436 34.9572 36.7307 32.3663 39.9415 32.3881C54.4034 32.4862 90.8507 32.6983 91.2026 32.3465C91.5023 32.0468 91.3928 21.0029 91.2931 14.0222C91.2485 10.8986 88.71 8.39563 85.5873 8.37914L13.7819 8.00008C10.5936 7.98325 8 10.5641 8 13.7537V85.5463C8 88.6856 10.5089 91.2448 13.6468 91.2866Z" fill="#031B64"/>
<path d="M119.11 41.4701C111.521 41.3689 98.9386 41.248 98.6325 41.5543C98.2792 41.9078 98.4944 79.7951 98.592 94.5877C98.6132 97.7996 96.0261 100.39 92.8153 100.369C78.3534 100.271 41.9061 100.058 41.5542 100.41C41.2545 100.71 41.364 111.754 41.4636 118.735C41.5082 121.858 44.0467 124.361 47.1695 124.378L118.975 124.757C122.163 124.774 124.757 122.193 124.757 119.003V47.2105C124.757 44.0711 122.248 41.512 119.11 41.4701Z" fill="#031B64"/>
<path d="M193.995 9.07471C200.664 9.07471 206.493 9.84285 211.482 11.3791C216.47 12.9154 220.482 14.537 223.519 16.244C226.555 17.951 228.399 19.0889 229.049 19.6579L217.337 40.2269C216.47 39.5441 214.979 38.5484 212.864 37.2397C210.804 35.931 208.337 34.7646 205.463 33.7404C202.643 32.7162 199.688 32.2042 196.598 32.2042C192.422 32.2042 189.034 33.0007 186.431 34.5939C183.882 36.1302 182.608 38.4346 182.608 41.5071C182.608 43.6124 183.286 45.5185 184.642 47.2255C186.051 48.8756 188.166 50.4687 190.986 52.005C193.859 53.4844 197.492 55.106 201.884 56.8699C205.897 58.4061 209.665 60.2269 213.19 62.3322C216.714 64.4374 219.805 66.941 222.461 69.8428C225.173 72.6878 227.314 75.9879 228.887 79.7433C230.459 83.4986 231.245 87.766 231.245 92.5455C231.245 98.2354 230.134 103.186 227.911 107.396C225.688 111.55 222.651 114.992 218.801 117.723C215.006 120.454 210.668 122.474 205.788 123.783C200.962 125.149 195.947 125.831 190.742 125.831C183.367 125.831 176.752 124.95 170.896 123.186C165.095 121.422 160.404 119.516 156.826 117.467C153.247 115.419 151.105 114.053 150.4 113.371L162.519 91.9481C163.17 92.4602 164.417 93.2852 166.26 94.4232C168.158 95.5612 170.463 96.7561 173.174 98.0078C175.885 99.2027 178.759 100.227 181.795 101.08C184.886 101.934 187.922 102.361 190.904 102.361C195.893 102.361 199.634 101.365 202.128 99.3734C204.622 97.3251 205.87 94.6508 205.87 91.3507C205.87 88.904 205.083 86.7134 203.511 84.7788C201.938 82.8443 199.58 81.0235 196.435 79.3165C193.29 77.5527 189.359 75.7034 184.642 73.7689C179.924 71.7774 175.505 69.3592 171.384 66.5142C167.318 63.6693 164.01 60.1131 161.462 55.8457C158.913 51.5783 157.639 46.2867 157.639 39.9709C157.639 33.6551 159.32 28.1928 162.682 23.584C166.098 18.9182 170.571 15.3336 176.102 12.83C181.687 10.3265 187.651 9.07471 193.995 9.07471Z" fill="#031B64"/>
<path d="M246.059 11.1231H285.099C291.986 11.1231 298.194 12.4033 303.725 14.9638C309.255 17.4673 313.647 21.308 316.901 26.4858C320.208 31.6067 321.862 38.0363 321.862 45.7746C321.862 53.4559 320.208 59.9993 316.901 65.4047C313.647 70.7532 309.255 74.85 303.725 77.6949C298.194 80.483 291.986 81.877 285.099 81.877H270.378V123.783H246.059V11.1231ZM270.378 61.7347H278.349C281.656 61.7347 284.611 61.2226 287.214 60.1985C289.871 59.1743 291.986 57.5527 293.558 55.3336C295.13 53.0576 295.917 50.0704 295.917 46.372C295.917 42.6167 295.13 39.6579 293.558 37.4958C291.986 35.2767 289.871 33.6835 287.214 32.7162C284.611 31.749 281.656 31.2653 278.349 31.2653H270.378V61.7347Z" fill="#031B64"/>
<path d="M358.387 11.1231H382.543L424.917 123.783H398.972L391.164 101.166H349.847L341.958 123.783H315.931L358.387 11.1231ZM357.98 78.8044H383.112L370.668 41.8485H370.424L357.98 78.8044Z" fill="#031B64"/>
<path d="M485.589 100.568C490.578 100.568 495.105 99.8002 499.172 98.2639C503.293 96.7276 506.356 95.2198 508.362 93.7404L518.773 115.419C516.225 117.695 511.86 119.999 505.678 122.332C499.551 124.665 492.258 125.831 483.8 125.831C475.883 125.831 468.455 124.381 461.515 121.479C454.574 118.577 448.447 114.509 443.133 109.274C437.874 103.982 433.726 97.8087 430.689 90.7532C427.707 83.6408 426.216 75.931 426.216 67.6238C426.216 59.3165 427.707 51.6067 430.689 44.4943C433.672 37.3251 437.792 31.0946 443.052 25.803C448.366 20.5114 454.493 16.4147 461.433 13.5128C468.428 10.5541 475.883 9.07471 483.8 9.07471C492.258 9.07471 499.551 10.2411 505.678 12.574C511.86 14.9069 516.225 17.2113 518.773 19.4872L508.362 41.1657C506.356 39.6295 503.293 38.1217 499.172 36.6423C495.105 35.106 490.578 34.3379 485.589 34.3379C480.058 34.3379 475.233 35.2482 471.112 37.069C466.991 38.8329 463.548 41.2795 460.783 44.409C458.017 47.5384 455.957 51.0662 454.601 54.9922C453.246 58.9182 452.568 63.0434 452.568 67.3677C452.568 71.749 453.246 75.931 454.601 79.914C455.957 83.84 458.017 87.3677 460.783 90.4972C463.548 93.6266 466.991 96.1017 471.112 97.9225C475.233 99.6864 480.058 100.568 485.589 100.568Z" fill="#031B64"/>
<path d="M533.581 11.1231H602.144V33.4844H557.818V56.4431H601.738V78.1216H557.818V101.422H602.144V123.783H533.581V11.1231Z" fill="#031B64"/>
<path d="M664.312 65.5754L705.141 123.783H676.105L643.084 74.537V123.783H618.766V11.1231H643.084V57.2113L673.503 11.1231H700.912L664.312 65.5754Z" fill="#031B64"/>
<path d="M714.186 11.1231H757.943C764.179 11.1231 769.736 12.4887 774.616 15.2198C779.496 17.951 783.346 21.9054 786.166 27.0832C789.039 32.2042 790.476 38.3208 790.476 45.4332C790.476 52.5455 789.256 58.3777 786.816 62.9296C784.431 67.4246 781.557 70.8101 778.195 73.0861C774.833 75.3051 771.715 76.6423 768.842 77.0975L794.95 123.783H767.622L744.36 79.0605H738.504V123.783H714.186V11.1231ZM738.504 61.3933H749.24C753.578 61.3933 757.374 60.2838 760.627 58.0648C763.88 55.8457 765.507 51.9197 765.507 46.2867C765.507 40.6537 763.907 36.7561 760.708 34.5939C757.509 32.3748 753.741 31.2653 749.403 31.2653H738.504V61.3933Z" fill="#031B64"/>
<path d="M837.966 11.1231H862.122L904.496 123.783H878.551L870.743 101.166H829.426L821.537 123.783H795.51L837.966 11.1231ZM837.559 78.8044H862.691L850.247 41.8485H850.003L837.559 78.8044Z" fill="#031B64"/>
<path d="M913.733 11.1231H975.79V33.4844H938.051V56.1871H972.943V78.463H938.051V123.783H913.733V11.1231Z" fill="#031B64"/>
<path d="M1011.25 33.4844H985.626V11.1231H1061.1V33.4844H1035.56V123.783H1011.25V33.4844Z" fill="#031B64"/>
</svg>
