<svg width="1070" height="195" viewBox="0 0 1070 195" fill="none" xmlns="http://www.w3.org/2000/svg">
<path d="M41.3592 46.9698C41.3596 59.8574 41.3604 90.8785 41.3591 91.2111C41.3578 91.5445 72.9102 91.3484 85.9055 91.2535C88.9578 91.2312 91.3977 88.7703 91.3977 85.7178V41.4524C91.3977 41.2858 59.8847 41.3836 46.8751 41.4311C43.8135 41.4423 41.3592 43.9082 41.3592 46.9698Z" fill="#232D3F"/>
<path d="M13.6468 91.2866C21.2355 91.3879 33.8181 91.5088 34.1243 91.2025C34.4776 90.849 34.2624 52.9617 34.1648 38.1691C34.1436 34.9572 36.7307 32.3663 39.9415 32.3881C54.4034 32.4862 90.8507 32.6983 91.2026 32.3465C91.5023 32.0468 91.3928 21.0029 91.2931 14.0222C91.2485 10.8986 88.71 8.39563 85.5873 8.37914L13.7819 8.00008C10.5936 7.98325 8 10.5641 8 13.7537V85.5463C8 88.6856 10.5089 91.2448 13.6468 91.2866Z" fill="#232D3F"/>
<path d="M119.11 41.4701C111.521 41.3689 98.9387 41.248 98.6325 41.5543C98.2792 41.9078 98.4944 79.7951 98.592 94.5877C98.6132 97.7996 96.0261 100.39 92.8153 100.369C78.3534 100.271 41.9061 100.058 41.5542 100.41C41.2545 100.71 41.364 111.754 41.4636 118.735C41.5082 121.858 44.0467 124.361 47.1695 124.378L118.975 124.757C122.163 124.774 124.757 122.193 124.757 119.003V47.2105C124.757 44.0711 122.248 41.512 119.11 41.4701Z" fill="#232D3F"/>
<path d="M193.995 9.07422C200.664 9.07422 206.493 9.84236 211.482 11.3786C216.47 12.9149 220.482 14.5365 223.519 16.2435C226.555 17.9505 228.399 19.0884 229.049 19.6574L217.337 40.2264C216.47 39.5436 214.979 38.5479 212.864 37.2392C210.804 35.9305 208.337 34.7641 205.463 33.7399C202.643 32.7158 199.688 32.2037 196.598 32.2037C192.422 32.2037 189.034 33.0002 186.431 34.5934C183.882 36.1297 182.608 38.4341 182.608 41.5067C182.608 43.6119 183.286 45.518 184.642 47.225C186.051 48.8751 188.166 50.4682 190.986 52.0045C193.859 53.4839 197.492 55.1055 201.884 56.8694C205.897 58.4057 209.665 60.2264 213.19 62.3317C216.714 64.437 219.805 66.9405 222.461 69.8424C225.173 72.6873 227.314 75.9874 228.887 79.7428C230.459 83.4981 231.245 87.7655 231.245 92.5451C231.245 98.235 230.134 103.185 227.911 107.396C225.688 111.549 222.651 114.992 218.801 117.723C215.006 120.454 210.668 122.474 205.788 123.783C200.962 125.148 195.947 125.831 190.742 125.831C183.367 125.831 176.752 124.949 170.896 123.185C165.095 121.421 160.404 119.515 156.826 117.467C153.247 115.418 151.105 114.053 150.4 113.37L162.519 91.9476C163.17 92.4597 164.417 93.2847 166.26 94.4227C168.158 95.5607 170.463 96.7556 173.174 98.0074C175.885 99.2022 178.759 100.226 181.795 101.08C184.886 101.933 187.922 102.36 190.904 102.36C195.893 102.36 199.634 101.364 202.128 99.3729C204.622 97.3246 205.87 94.6503 205.87 91.3502C205.87 88.9035 205.083 86.7129 203.511 84.7783C201.938 82.8438 199.58 81.023 196.435 79.316C193.29 77.5522 189.359 75.7029 184.642 73.7684C179.924 71.7769 175.505 69.3587 171.384 66.5138C167.318 63.6688 164.01 60.1126 161.462 55.8452C158.913 51.5778 157.639 46.2862 157.639 39.9704C157.639 33.6546 159.32 28.1923 162.682 23.5835C166.098 18.9178 170.571 15.3331 176.102 12.8296C181.687 10.326 187.651 9.07422 193.995 9.07422Z" fill="#232D3F"/>
<path d="M246.059 11.1226H285.099C291.986 11.1226 298.194 12.4028 303.725 14.9633C309.255 17.4668 313.647 21.3075 316.901 26.4853C320.208 31.6062 321.862 38.0358 321.862 45.7741C321.862 53.4554 320.208 59.9988 316.901 65.4042C313.647 70.7527 309.255 74.8495 303.725 77.6944C298.194 80.4825 291.986 81.8765 285.099 81.8765H270.378V123.783H246.059V11.1226ZM270.378 61.7342H278.349C281.656 61.7342 284.611 61.2222 287.214 60.198C289.871 59.1738 291.986 57.5522 293.558 55.3331C295.13 53.0571 295.917 50.07 295.917 46.3715C295.917 42.6162 295.13 39.6574 293.558 37.4953C291.986 35.2762 289.871 33.683 287.214 32.7158C284.611 31.7485 281.656 31.2648 278.349 31.2648H270.378V61.7342Z" fill="#232D3F"/>
<path d="M358.387 11.1226H382.543L424.917 123.783H398.972L391.164 101.165H349.847L341.958 123.783H315.931L358.387 11.1226ZM357.98 78.8039H383.112L370.668 41.848H370.424L357.98 78.8039Z" fill="#232D3F"/>
<path d="M485.589 100.568C490.578 100.568 495.105 99.7997 499.172 98.2634C503.293 96.7271 506.356 95.2193 508.362 93.7399L518.773 115.418C516.225 117.694 511.86 119.999 505.678 122.332C499.551 124.665 492.258 125.831 483.8 125.831C475.883 125.831 468.455 124.38 461.515 121.478C454.574 118.576 448.447 114.508 443.133 109.273C437.874 103.982 433.726 97.8082 430.689 90.7527C427.707 83.6404 426.216 75.9305 426.216 67.6233C426.216 59.316 427.707 51.6062 430.689 44.4939C433.672 37.3246 437.792 31.0941 443.052 25.8025C448.366 20.5109 454.493 16.4142 461.433 13.5123C468.428 10.5536 475.883 9.07422 483.8 9.07422C492.258 9.07422 499.551 10.2406 505.678 12.5735C511.86 14.9064 516.225 17.2108 518.773 19.4867L508.362 41.1653C506.356 39.629 503.293 38.1212 499.172 36.6418C495.105 35.1055 490.578 34.3374 485.589 34.3374C480.058 34.3374 475.233 35.2478 471.112 37.0685C466.991 38.8324 463.548 41.2791 460.783 44.4085C458.017 47.5379 455.957 51.0657 454.601 54.9917C453.246 58.9177 452.568 63.0429 452.568 67.3672C452.568 71.7485 453.246 75.9305 454.601 79.9135C455.957 83.8395 458.017 87.3672 460.783 90.4967C463.548 93.6261 466.991 96.1012 471.112 97.922C475.233 99.6859 480.058 100.568 485.589 100.568Z" fill="#232D3F"/>
<path d="M533.581 11.1226H602.144V33.4839H557.818V56.4426H601.738V78.1212H557.818V101.421H602.144V123.783H533.581V11.1226Z" fill="#232D3F"/>
<path d="M664.312 65.5749L705.141 123.783H676.105L643.084 74.5365V123.783H618.766V11.1226H643.084V57.2108L673.503 11.1226H700.912L664.312 65.5749Z" fill="#232D3F"/>
<path d="M714.186 11.1226H757.943C764.179 11.1226 769.736 12.4882 774.616 15.2193C779.496 17.9505 783.346 21.9049 786.166 27.0828C789.039 32.2037 790.476 38.3203 790.476 45.4327C790.476 52.5451 789.256 58.3772 786.816 62.9291C784.43 67.4241 781.557 70.8096 778.195 73.0856C774.833 75.3047 771.715 76.6418 768.842 77.097L794.95 123.783H767.622L744.36 79.06H738.504V123.783H714.186V11.1226ZM738.504 61.3929H749.24C753.578 61.3929 757.374 60.2833 760.627 58.0643C763.88 55.8452 765.507 51.9192 765.507 46.2862C765.507 40.6532 763.907 36.7556 760.708 34.5934C757.509 32.3744 753.741 31.2648 749.403 31.2648H738.504V61.3929Z" fill="#232D3F"/>
<path d="M837.966 11.1226H862.122L904.496 123.783H878.551L870.743 101.165H829.426L821.537 123.783H795.51L837.966 11.1226ZM837.559 78.8039H862.691L850.247 41.848H850.003L837.559 78.8039Z" fill="#232D3F"/>
<path d="M913.733 11.1226H975.79V33.4839H938.051V56.1866H972.943V78.4626H938.051V123.783H913.733V11.1226Z" fill="#232D3F"/>
<path d="M1011.25 33.4839H985.626V11.1226H1061.1V33.4839H1035.56V123.783H1011.25V33.4839Z" fill="#232D3F"/>
<path d="M576.367 174.073C576.367 178.118 574.837 181.251 571.777 183.47C568.737 185.69 564.448 186.8 558.908 186.8C548.609 186.8 542.64 183.087 541 175.66L546.549 174.509C547.189 177.143 548.549 179.083 550.629 180.328C552.709 181.552 555.539 182.164 559.118 182.164C562.818 182.164 565.668 181.51 567.667 180.203C569.687 178.876 570.697 176.936 570.697 174.384C570.697 172.953 570.377 171.791 569.737 170.899C569.117 170.007 568.237 169.271 567.097 168.69C565.958 168.109 564.598 167.622 563.018 167.227C561.438 166.833 559.688 166.408 557.768 165.952C555.549 165.433 553.689 164.925 552.189 164.427C550.709 163.929 549.489 163.41 548.529 162.871C547.569 162.311 546.749 161.72 546.07 161.097C545.07 160.143 544.3 159.033 543.76 157.768C543.24 156.502 542.98 155.05 542.98 153.411C542.98 149.657 544.36 146.763 547.119 144.73C549.899 142.697 553.869 141.68 559.028 141.68C563.828 141.68 567.497 142.448 570.037 143.983C572.577 145.497 574.357 148.09 575.377 151.762L569.737 152.789C569.117 150.466 567.937 148.785 566.198 147.748C564.458 146.69 562.048 146.161 558.968 146.161C555.589 146.161 553.009 146.742 551.229 147.904C549.449 149.065 548.559 150.798 548.559 153.1C548.559 154.449 548.899 155.569 549.579 156.461C550.279 157.332 551.279 158.069 552.579 158.67C553.799 159.272 556.389 160.029 560.348 160.942C561.968 161.336 563.568 161.751 565.148 162.186C566.728 162.601 568.217 163.13 569.617 163.773C570.437 164.126 571.217 164.562 571.957 165.08C572.717 165.578 573.377 166.159 573.937 166.823C574.697 167.694 575.287 168.721 575.707 169.903C576.147 171.086 576.367 172.476 576.367 174.073Z" fill="#FF5757"/>
<path d="M588.695 158.266C589.855 156.067 591.245 154.459 592.865 153.443C594.505 152.405 596.575 151.887 599.074 151.887C602.594 151.887 605.184 152.841 606.844 154.749C608.524 156.637 609.363 159.635 609.363 163.742V186.178H603.934V164.831C603.934 161.782 603.414 159.583 602.374 158.235C601.354 156.886 599.644 156.212 597.245 156.212C594.705 156.212 592.665 157.125 591.125 158.95C589.605 160.776 588.845 163.234 588.845 166.325V186.178H583.446V140H588.845V152.011C588.845 152.841 588.825 153.723 588.785 154.656C588.745 155.569 588.705 156.368 588.665 157.052C588.645 157.716 588.625 158.12 588.605 158.266H588.695Z" fill="#FF5757"/>
<path d="M644.97 169.312C644.97 175.204 643.72 179.591 641.22 182.475C638.721 185.358 635.091 186.8 630.331 186.8C625.592 186.8 622.012 185.306 619.592 182.319C617.173 179.311 615.963 174.976 615.963 169.312C615.963 163.504 617.173 159.147 619.592 156.243C622.032 153.339 625.672 151.887 630.511 151.887C635.471 151.887 639.121 153.308 641.46 156.15C643.8 158.971 644.97 163.359 644.97 169.312ZM639.301 169.312C639.301 164.665 638.631 161.294 637.291 159.199C635.971 157.083 633.741 156.025 630.601 156.025C627.442 156.025 625.152 157.104 623.732 159.261C622.332 161.398 621.632 164.748 621.632 169.312C621.632 173.752 622.322 177.091 623.702 179.332C625.102 181.552 627.292 182.661 630.271 182.661C633.511 182.661 635.821 181.583 637.201 179.425C638.601 177.268 639.301 173.897 639.301 169.312Z" fill="#FF5757"/>
<path d="M657.239 168.628V186.178H651.839V160.351C651.839 159.168 651.819 157.923 651.779 156.616C651.759 155.31 651.719 153.94 651.659 152.509H656.759C656.799 153.463 656.829 154.324 656.849 155.092C656.889 155.859 656.919 156.534 656.939 157.114C656.959 157.674 656.969 158.152 656.969 158.546C656.989 158.919 656.999 159.199 656.999 159.386H657.119C657.719 157.353 658.379 155.776 659.099 154.656C659.799 153.619 660.599 152.903 661.498 152.509C662.398 152.094 663.508 151.887 664.828 151.887C665.568 151.887 666.298 151.99 667.018 152.198V157.332C666.338 157.125 665.378 157.021 664.138 157.021C661.898 157.021 660.189 158.027 659.009 160.039C657.829 162.031 657.239 164.894 657.239 168.628Z" fill="#FF5757"/>
<path d="M684.656 185.929C682.896 186.427 681.077 186.676 679.197 186.676C677.037 186.676 675.417 186.043 674.337 184.777C673.257 183.491 672.717 181.583 672.717 179.052V156.585H668.968V152.509H672.927L674.517 144.979H678.117V152.509H684.116V156.585H678.117V177.838C678.117 179.456 678.367 180.597 678.867 181.261C679.387 181.904 680.277 182.226 681.536 182.226C682.216 182.226 683.256 182.081 684.656 181.79V185.929Z" fill="#FF5757"/>
<path d="M722.693 147.188V186.178H716.993V147.188H702.474V142.334H737.211V147.188H722.693Z" fill="#FF5757"/>
<path d="M740.091 170.526C740.091 174.384 740.861 177.361 742.401 179.456C743.94 181.552 746.19 182.599 749.15 182.599C751.49 182.599 753.36 182.112 754.759 181.137C756.179 180.162 757.139 178.927 757.639 177.434L762.379 178.834C760.439 184.145 756.029 186.8 749.15 186.8C744.35 186.8 740.691 185.317 738.171 182.35C735.671 179.384 734.421 174.976 734.421 169.126C734.421 163.566 735.671 159.303 738.171 156.336C740.691 153.37 744.28 151.887 748.94 151.887C753.72 151.887 757.299 153.38 759.679 156.368C762.059 159.355 763.249 163.825 763.249 169.779V170.526H740.091ZM757.669 166.232C757.369 162.684 756.499 160.102 755.059 158.484C753.62 156.845 751.55 156.025 748.85 156.025C746.23 156.025 744.15 156.938 742.611 158.764C741.091 160.568 740.271 163.058 740.151 166.232H757.669Z" fill="#FF5757"/>
<path d="M775.667 168.628V186.178H770.268V160.351C770.268 159.168 770.248 157.923 770.208 156.616C770.188 155.31 770.148 153.94 770.088 152.509H775.187C775.227 153.463 775.257 154.324 775.277 155.092C775.317 155.859 775.347 156.534 775.367 157.114C775.387 157.674 775.397 158.152 775.397 158.546C775.417 158.919 775.427 159.199 775.427 159.386H775.547C776.147 157.353 776.807 155.776 777.527 154.656C778.227 153.619 779.027 152.903 779.927 152.509C780.827 152.094 781.937 151.887 783.257 151.887C783.997 151.887 784.727 151.99 785.447 152.198V157.332C784.767 157.125 783.807 157.021 782.567 157.021C780.327 157.021 778.617 158.027 777.437 160.039C776.257 162.031 775.667 164.894 775.667 168.628Z" fill="#FF5757"/>
<path d="M796.095 166.667V186.178H790.726V159.697C790.726 157.726 790.706 156.15 790.666 154.967C790.646 153.764 790.606 152.945 790.546 152.509H795.646C795.686 152.965 795.726 153.526 795.766 154.189C795.805 154.853 795.835 155.548 795.855 156.274C795.875 156.98 795.885 157.643 795.885 158.266H795.975C797.135 155.88 798.465 154.22 799.965 153.287C801.465 152.353 803.295 151.887 805.455 151.887C807.914 151.887 809.854 152.395 811.274 153.411C812.714 154.428 813.714 156.046 814.274 158.266H814.364C815.484 156.005 816.833 154.376 818.413 153.38C820.013 152.385 821.943 151.887 824.203 151.887C827.482 151.887 829.862 152.81 831.342 154.656C832.842 156.502 833.592 159.531 833.592 163.742V186.178H828.252V164.831C828.252 161.574 827.822 159.324 826.962 158.079C826.103 156.834 824.553 156.212 822.313 156.212C819.953 156.212 818.113 157.125 816.793 158.95C815.494 160.755 814.844 163.327 814.844 166.667V186.178H809.504V164.831C809.504 161.574 809.074 159.324 808.214 158.079C807.354 156.834 805.805 156.212 803.565 156.212C801.265 156.212 799.445 157.125 798.105 158.95C796.765 160.776 796.095 163.348 796.095 166.667Z" fill="#FF5757"/>
<path d="M865.509 167.974V186.178H859.779V142.334H879.667C884.427 142.334 888.097 143.444 890.676 145.663C893.276 147.862 894.576 150.932 894.576 154.874C894.576 158.131 893.656 160.869 891.816 163.089C889.996 165.309 887.477 166.709 884.257 167.29L896.256 186.178H889.656L878.678 167.974H865.509ZM888.817 154.936C888.817 152.385 887.977 150.445 886.297 149.117C884.637 147.769 882.237 147.095 879.098 147.095H865.509V163.276H879.337C882.357 163.276 884.687 162.549 886.327 161.097C887.987 159.624 888.817 157.571 888.817 154.936Z" fill="#FF5757"/>
<path d="M907.415 170.526C907.415 174.384 908.185 177.361 909.725 179.456C911.264 181.552 913.514 182.599 916.474 182.599C918.814 182.599 920.684 182.112 922.083 181.137C923.503 180.162 924.463 178.927 924.963 177.434L929.703 178.834C927.763 184.145 923.353 186.8 916.474 186.8C911.674 186.8 908.015 185.317 905.495 182.35C902.995 179.384 901.745 174.976 901.745 169.126C901.745 163.566 902.995 159.303 905.495 156.336C908.015 153.37 911.604 151.887 916.264 151.887C921.043 151.887 924.623 153.38 927.003 156.368C929.383 159.355 930.573 163.825 930.573 169.779V170.526H907.415ZM924.993 166.232C924.693 162.684 923.823 160.102 922.383 158.484C920.943 156.845 918.874 156.025 916.174 156.025C913.554 156.025 911.474 156.938 909.935 158.764C908.415 160.568 907.595 163.058 907.475 166.232H924.993Z" fill="#FF5757"/>
<path d="M942.991 166.667V186.178H937.592V159.697C937.592 157.726 937.572 156.15 937.532 154.967C937.512 153.764 937.472 152.945 937.412 152.509H942.511C942.551 152.903 942.581 153.401 942.601 154.003C942.641 154.604 942.671 155.268 942.691 155.994C942.711 156.72 942.731 157.477 942.751 158.266H942.841C944.081 155.942 945.511 154.303 947.131 153.349C948.771 152.374 950.801 151.887 953.22 151.887C956.78 151.887 959.38 152.831 961.02 154.718C962.679 156.606 963.509 159.614 963.509 163.742V186.178H958.08V164.831C958.08 161.616 957.58 159.376 956.58 158.11C955.58 156.845 953.85 156.212 951.391 156.212C948.791 156.212 946.741 157.135 945.241 158.981C943.741 160.828 942.991 163.39 942.991 166.667Z" fill="#FF5757"/>
<path d="M984.147 185.929C982.388 186.427 980.568 186.676 978.688 186.676C976.528 186.676 974.908 186.043 973.828 184.777C972.749 183.491 972.209 181.583 972.209 179.052V156.585H968.459V152.509H972.419L974.008 144.979H977.608V152.509H983.607V156.585H977.608V177.838C977.608 179.456 977.858 180.597 978.358 181.261C978.878 181.904 979.768 182.226 981.028 182.226C981.708 182.226 982.748 182.081 984.147 181.79V185.929Z" fill="#FF5757"/>
<path d="M997.046 186.8C993.786 186.8 991.337 185.908 989.697 184.124C988.057 182.34 987.237 179.892 987.237 176.78C987.237 173.295 988.337 170.619 990.537 168.752C992.757 166.885 996.326 165.889 1001.25 165.765L1008.54 165.64V163.805C1008.54 161.066 1007.98 159.106 1006.86 157.923C1005.74 156.741 1003.98 156.15 1001.58 156.15C999.156 156.15 997.396 156.575 996.296 157.426C995.196 158.276 994.536 159.635 994.316 161.502L988.677 160.973C989.597 154.915 993.936 151.887 1001.7 151.887C1005.78 151.887 1008.85 152.862 1010.9 154.812C1012.96 156.741 1013.99 159.541 1013.99 163.213V177.714C1013.99 179.373 1014.2 180.628 1014.62 181.479C1015.04 182.309 1015.84 182.724 1017.02 182.724C1017.58 182.724 1018.17 182.651 1018.79 182.506V185.991C1018.11 186.157 1017.42 186.281 1016.72 186.364C1016.02 186.447 1015.32 186.489 1014.62 186.489C1012.62 186.489 1011.16 185.949 1010.24 184.871C1009.34 183.771 1008.84 182.06 1008.72 179.736H1008.54C1007.16 182.309 1005.55 184.134 1003.71 185.213C1001.89 186.271 999.666 186.8 997.046 186.8ZM1008.54 169.561L1002.63 169.686C1000.11 169.706 998.186 169.976 996.866 170.495C995.546 170.993 994.536 171.76 993.836 172.797C993.137 173.835 992.787 175.193 992.787 176.874C992.787 178.699 993.257 180.11 994.196 181.106C995.156 182.101 996.516 182.599 998.276 182.599C1000.28 182.599 1002.04 182.132 1003.56 181.199C1005.1 180.265 1006.31 178.99 1007.19 177.372C1008.09 175.733 1008.54 174.052 1008.54 172.331V169.561Z" fill="#FF5757"/>
<path d="M1028.36 140V186.178H1022.96V140H1028.36Z" fill="#FF5757"/>
<path d="M1061 176.874C1061 180.048 1059.84 182.495 1057.52 184.217C1055.22 185.939 1051.99 186.8 1047.83 186.8C1043.79 186.8 1040.67 186.115 1038.47 184.746C1036.29 183.356 1034.87 181.199 1034.21 178.274L1038.98 177.309C1039.44 179.114 1040.39 180.442 1041.83 181.292C1043.27 182.122 1045.27 182.537 1047.83 182.537C1050.57 182.537 1052.57 182.101 1053.83 181.23C1055.11 180.359 1055.75 179.052 1055.75 177.309C1055.75 175.982 1055.31 174.903 1054.43 174.073C1053.55 173.243 1052.13 172.559 1050.17 172.019C1047.85 171.376 1046 170.847 1044.62 170.432C1043.26 170.018 1042.21 169.665 1041.47 169.374C1040.73 169.063 1040.14 168.773 1039.7 168.503C1038.38 167.715 1037.35 166.75 1036.61 165.609C1035.87 164.468 1035.5 163.068 1035.5 161.409C1035.5 158.338 1036.55 156.005 1038.65 154.407C1040.77 152.789 1043.85 151.98 1047.89 151.98C1051.47 151.98 1054.31 152.634 1056.41 153.94C1058.53 155.247 1059.87 157.343 1060.43 160.226L1055.57 160.848C1055.27 159.355 1054.46 158.214 1053.14 157.426C1051.84 156.616 1050.09 156.212 1047.89 156.212C1045.45 156.212 1043.65 156.596 1042.49 157.363C1041.33 158.131 1040.75 159.293 1040.75 160.848C1040.75 161.989 1041.08 162.933 1041.74 163.68C1042.4 164.406 1043.66 165.008 1045.52 165.485C1048.02 166.107 1050.4 166.792 1052.66 167.539C1054.92 168.265 1056.54 168.991 1057.52 169.717C1058.66 170.567 1059.52 171.573 1060.1 172.735C1060.7 173.876 1061 175.256 1061 176.874Z" fill="#FF5757"/>
</svg>
